<?xml version="1.0" encoding="UTF-8"?> <svg xmlns="http://www.w3.org/2000/svg" width="197" height="166" viewBox="0 0 197 166" fill="none"><path d="M105 165.8C96.7 165.8 88.4 164.2 78.2 160.7C73.9 159.2 69.9 157.8 66.3 156.4C66.1667 156.333 66.0667 156.3 66 156.3L64.4 155.6C55.4 152.3 43.7 152.2 33.4 152.7C31.8 152.8 30.4 151.5 30.3 149.8C30.2 148.2 31.5 146.8 33.1 146.7C44 146.3 56.5 146.3 66.5 150.1L67.5 150.5V150.6C67.6334 150.6 67.7667 150.6 67.9 150.6L68.2 150.7C68.2 150.7 68.2333 150.733 68.3 150.8C71.9 152.2 75.8 153.6 80.1 155.1C92.2 159.2 101.1 160.5 111 159.6C121.1 158.6 138.6 149.3 161.8 132.6C185.2 115.7 190.6 107.1 191 102.7C191.2 101.4 190.8 100.3 189.8 99.2C186.5 95.7 169.3 107.3 154.1 117.5L153.7 117.8C152.3 118.7 150.5 118.3 149.6 117C148.6 115.6 149 113.8 150.4 112.8L150.7 112.6C173.6 97.2 187.4 87.9 194.2 95.2C196.3 97.5 197.2 100.2 196.9 103.3C196.1 111.6 186.1 122.4 165.2 137.4C140.9 155 122.8 164.4 111.5 165.5C109.3 165.7 107.133 165.8 105 165.8Z" fill="#CF358A"></path><path d="M121.7 134.8C114.3 134.8 107 134.1 103.3 133.5C95.2 132.2 78.5 126.1 77.8 125.8C76.3 125.2 75.5 123.5 76.1 122C76.6 120.4 78.4 119.7 79.9 120.2C80.1 120.3 96.7 126.4 104.2 127.6C118.3 129.9 137.6 128.9 139.2 125.9C139.3 122.7 131.9 120.3 120.8 116.7C116.5 115.3 111.6 113.8 106 111.8C100.2 109.7 94.9 106.8 89.9 104.1C82.5 100.1 75.5 96.3 68.7 96.2C59.1 96.2 50.8 99.4 44 102.7C38.5 105.2 33.6 107.3 28.9 109C27.4 109.5 25.7 108.7 25.1 107.2C24.6 105.6 25.4 103.9 26.9 103.4C31.4 101.8 36.2 99.8 41.4 97.3C48.4 94 57.7 90.3 68.3 90.3C68.4333 90.3 68.5667 90.3 68.7 90.3C77 90.4 84.6 94.5 92.7 98.9C97.6 101.5 102.6 104.2 108 106.2C113.5 108.1 118.4 109.7 122.6 111.1C137.3 115.8 145.3 118.4 145.2 126.1C145.1 127.4 144.7 129.1 142.9 130.7C139.1 133.8 130.3 134.8 121.7 134.8Z" fill="#CF358A"></path><path fill-rule="evenodd" clip-rule="evenodd" d="M16.4 163.6C11.3 163.6 6.90001 159.9 6.30001 154.7L0.700007 109.3C0.400007 106.6 1.10001 103.9 2.80001 101.8C4.50001 99.6001 6.90002 98.3001 9.60002 97.9001L19.5 96.7C25.1 96 30.2 100 30.9 105.6L36.4 151C37.1 156.6 33.1 161.7 27.6 162.4L17.6 163.6C17.2 163.6 16.8 163.6 16.4 163.6ZM20.8 102.6C20.6 102.6 20.4 102.6 20.2 102.6L10.3 103.8C9.20001 104 8.20001 104.5 7.50001 105.4C6.80001 106.3 6.50002 107.4 6.60002 108.5L12.2 154C12.5 156.3 14.6 157.9 16.9 157.7L26.8 156.5C29.1 156.2 30.8 154.1 30.5 151.8L24.9 106.3C24.8 105.2 24.2 104.2 23.4 103.5C22.6 102.9 21.7 102.6 20.8 102.6Z" fill="#CF358A"></path><path d="M16.8 118.3C15.3 118.3 14 117.2 13.8 115.7L13.7 114.7C13.5 113 14.6 111.5 16.3 111.3C17.9 111.2 19.4001 112.3 19.6001 113.9L19.7 114.9C19.9 116.6 18.8001 118.1 17.1001 118.3C16.9667 118.3 16.8667 118.3 16.8 118.3Z" fill="#CF358A"></path><path fill-rule="evenodd" clip-rule="evenodd" d="M67.9 64.3C56.9 64.3 47.9 55.4 47.9 44.4C47.9 33.4 56.9 24.4 67.9 24.4C78.9 24.4 87.8 33.4 87.8 44.4C87.8 55.4 78.9 64.3 67.9 64.3ZM67.9 30.4C60.2 30.4 53.9 36.6 53.9 44.4C53.9 52.1 60.2 58.4 67.9 58.4C75.6 58.4 81.9 52.1 81.9 44.4C81.9 36.6 75.6 30.4 67.9 30.4Z" fill="#CF358A"></path><path fill-rule="evenodd" clip-rule="evenodd" d="M113.6 35.1C103.9 35.1 96.1 27.2 96.1 17.6C96.1 7.99998 103.9 0.0999756 113.6 0.0999756C123.2 0.0999756 131.1 7.99998 131.1 17.6C131.1 27.2 123.2 35.1 113.6 35.1ZM113.6 6.09998C107.2 6.09998 102 11.2 102 17.6C102 24 107.2 29.1 113.6 29.1C119.9 29.1 125.1 24 125.1 17.6C125.1 11.2 119.9 6.09998 113.6 6.09998Z" fill="#CF358A"></path><path fill-rule="evenodd" clip-rule="evenodd" d="M122.8 97.2C109.5 97.2 98.7 86.4 98.7 73C98.7 59.7 109.5 48.9 122.8 48.9C136.1 48.9 147 59.7 147 73C147 86.4 136.1 97.2 122.8 97.2ZM122.8 54.8C112.8 54.8 104.6 63 104.6 73C104.6 83.1 112.8 91.2 122.8 91.2C132.9 91.2 141 83.1 141 73C141 63 132.9 54.8 122.8 54.8Z" fill="#CF358A"></path></svg> 