<svg width="56" height="57" viewBox="0 0 56 57" fill="none" xmlns="http://www.w3.org/2000/svg">
<path d="M56 28.8999C56 44.3999 43.5 56.8999 28 56.8999C12.5 56.8999 0 44.3999 0 28.8999C0 13.4999 12.5 0.899902 28 0.899902C43.5 0.899902 56 13.4999 56 28.8999Z" fill="#0E5AA1"/>
<path d="M29.6999 12.5999C29.6332 12.5332 29.5666 12.4999 29.4999 12.4999C29.4332 12.4332 29.3999 12.3999 29.3999 12.3999C29.3333 12.3999 29.2665 12.3666 29.1999 12.2999C29.1999 12.2999 29.1665 12.2665 29.0999 12.1998C29.0332 12.1998 28.9666 12.1998 28.8999 12.1998C28.8999 12.1332 28.8666 12.0999 28.8 12.0999C28.7333 12.0999 28.6665 12.0999 28.5999 12.0999C28.5332 12.0332 28.4999 11.9999 28.4999 11.9999C28.4332 11.9999 28.3666 11.9999 28.3 11.9999C28.2333 11.9999 28.1665 11.9999 28.0999 11.9999C28.0332 11.9332 27.9999 11.8999 27.9999 11.8999C27.7332 11.8999 27.5 11.8999 27.3 11.8999C27.2333 11.8999 27.1999 11.9332 27.1999 11.9999C27.1332 11.9999 27.0666 11.9999 26.9999 11.9999C26.9332 11.9999 26.8666 11.9999 26.8 11.9999C26.7333 11.9999 26.6665 12.0332 26.5999 12.0999C26.5999 12.0999 26.5666 12.0999 26.4999 12.0999C26.4332 12.0999 26.3666 12.1332 26.3 12.1998C26.3 12.1998 26.2665 12.1998 26.1999 12.1998C26.1332 12.2665 26.0666 12.2999 25.9999 12.2999C25.9999 12.3666 25.9666 12.3999 25.8999 12.3999C25.8333 12.3999 25.7665 12.4332 25.6999 12.4999C25.6999 12.4999 25.6665 12.5332 25.5999 12.5999C25.5332 12.5999 25.4999 12.6332 25.4999 12.6998C25.4332 12.7665 25.3666 12.8332 25.3 12.8999C25.2333 12.8999 25.1999 12.8999 25.1999 12.8999L14.9999 23.0999C13.6999 24.4999 13.6999 26.5999 14.9999 27.8999C16.3999 29.2999 18.5 29.2999 19.8 27.8999L24.1999 23.4999V42.9999C24.1999 44.7999 25.7999 46.3999 27.5999 46.3999C29.4999 46.3999 30.9999 44.7999 30.9999 42.9999V23.4999L35.3999 27.8999C36.7999 29.2999 38.8999 29.2999 40.1999 27.8999C40.8999 27.2999 41.1999 26.3999 41.1999 25.4999C41.1999 24.6999 40.8999 23.7999 40.1999 23.0999L29.9999 12.8999C29.9332 12.8332 29.8666 12.7665 29.8 12.6998C29.7333 12.6332 29.6999 12.5999 29.6999 12.5999Z" fill="white"/>
</svg>
