<svg width="21" height="16" viewBox="0 0 21 16" fill="none" xmlns="http://www.w3.org/2000/svg">
<path d="M19.9 9.19998C19.9 9.19998 19.9333 9.16667 20 9.1C20 9.1 20 9.06669 20 9.00002C20 9.00002 20.0333 9.00002 20.1 9.00002C20.1 8.93336 20.1 8.90005 20.1 8.90005C20.1 8.83338 20.1333 8.80007 20.2 8.80007C20.2 8.73341 20.2 8.69998 20.2 8.69998C20.2 8.63331 20.2 8.6 20.2 8.6C20.2 8.53333 20.2 8.50002 20.2 8.50002C20.2667 8.50002 20.3 8.46672 20.3 8.40005C20.3 8.33338 20.3 8.30007 20.3 8.30007C20.3 8.30007 20.3 8.26664 20.3 8.19998C20.3 8.06664 20.3 7.93341 20.3 7.80007C20.3 7.80007 20.3 7.76664 20.3 7.69998C20.3 7.69998 20.3 7.66667 20.3 7.6C20.3 7.6 20.2667 7.56669 20.2 7.50002C20.2 7.50002 20.2 7.46672 20.2 7.40005C20.2 7.40005 20.2 7.36674 20.2 7.30007C20.2 7.30007 20.2 7.26664 20.2 7.19998C20.1333 7.19998 20.1 7.19998 20.1 7.19998C20.1 7.13331 20.1 7.1 20.1 7.1C20.0333 7.03333 20 7.00002 20 7.00002C20 6.93336 20 6.90005 20 6.90005C19.9333 6.90005 19.9 6.86674 19.9 6.80007C19.9 6.80007 19.9 6.76664 19.9 6.69998C19.8333 6.69998 19.7667 6.66667 19.7 6.6L13.7 0.6C12.9 -0.2 11.7 -0.2 10.9 0.6C10.1 1.4 10.1 2.60005 10.9 3.40005L13.5 6.00002H2C0.9 6.00002 0 6.90002 0 8.00002C0 9.10002 0.9 10 2 10H13.5L10.9 12.6C10.1 13.4 10.1 14.7 10.9 15.4C11.3 15.8 11.8 16 12.3 16C12.8 16 13.3 15.8 13.7 15.4L19.7 9.40005C19.7667 9.40005 19.8333 9.36674 19.9 9.30007C19.9 9.23341 19.9 9.19998 19.9 9.19998Z" fill="#ffffff"/>
</svg>
