<svg width="1334" height="329" viewBox="0 0 1334 329" fill="none" xmlns="http://www.w3.org/2000/svg">
<path d="M606.8 286.2H606.3C604.8 286.2 603.6 284.9 603.6 283.4C603.6 281.9 604.8 280.7 606.3 280.7H606.8C612.1 280.7 617.5 280.5 622.8 280.3C624.3 280.3 625.6 281.4 625.6 283C625.7 284.5 624.5 285.8 623 285.8C617.6 286.1 612.2 286.2 606.8 286.2ZM584.3 285.5C584.233 285.5 584.167 285.5 584.1 285.5C578.6 285.2 573 284.8 567.5 284.2C566 284.1 564.9 282.7 565 281.2C565.2 279.7 566.5 278.6 568.1 278.7C573.5 279.3 579 279.7 584.4 280C586 280.1 587.1 281.4 587 282.9C587 284.4 585.7 285.5 584.3 285.5ZM644.9 284.3C643.5 284.3 642.3 283.2 642.1 281.8C642 280.3 643.1 278.9 644.6 278.8C650 278.2 655.5 277.6 660.9 276.8C662.4 276.6 663.8 277.6 664 279.1C664.2 280.6 663.2 282 661.7 282.3C656.2 283 650.7 283.7 645.1 284.3C645.033 284.3 644.967 284.3 644.9 284.3ZM545.9 281.4C545.767 281.4 545.633 281.4 545.5 281.4C540 280.5 534.5 279.5 529.1 278.5C527.6 278.2 526.6 276.7 526.9 275.2C527.2 273.7 528.7 272.8 530.2 273.1C535.5 274.1 541 275.1 546.3 275.9C547.8 276.2 548.9 277.6 548.6 279.1C548.4 280.4 547.3 281.4 545.9 281.4ZM683 278.5C681.7 278.5 680.6 277.6 680.3 276.3C680 274.8 681 273.4 682.5 273C687.8 271.9 693.2 270.7 698.5 269.4C699.9 269 701.4 269.9 701.8 271.4C702.2 272.8 701.3 274.3 699.8 274.7C694.5 276.1 689 277.3 683.6 278.4C683.4 278.467 683.2 278.5 683 278.5ZM508.1 273.6C507.9 273.6 507.667 273.567 507.4 273.5C502.1 272.1 496.7 270.6 491.4 269C490 268.5 489.1 267 489.6 265.5C490 264.1 491.6 263.3 493 263.7C498.2 265.3 503.5 266.8 508.8 268.2C510.3 268.5 511.2 270 510.8 271.5C510.5 272.8 509.4 273.6 508.1 273.6ZM720.3 268.7C719.2 268.7 718.1 268 717.7 266.8C717.2 265.4 718 263.8 719.5 263.3C724.7 261.7 729.9 259.9 735 258C736.4 257.4 738 258.1 738.5 259.6C739.1 261 738.4 262.6 736.9 263.1C731.8 265.1 726.5 266.9 721.2 268.6C720.933 268.667 720.633 268.7 720.3 268.7ZM471.3 262.1C470.967 262.1 470.667 262.033 470.4 261.9C465.2 260 459.9 257.9 454.9 255.8C453.5 255.2 452.8 253.6 453.4 252.2C454 250.8 455.6 250.1 457 250.7C462 252.8 467.1 254.8 472.3 256.7C473.7 257.2 474.4 258.8 473.9 260.3C473.5 261.4 472.4 262.1 471.3 262.1ZM756.4 254.9C755.3 254.9 754.3 254.3 753.8 253.3C753.2 251.9 753.8 250.2 755.2 249.6C760.2 247.4 765.2 245 770 242.5C771.4 241.8 773 242.4 773.7 243.7C774.4 245.1 773.9 246.7 772.5 247.4C767.6 249.9 762.5 252.4 757.5 254.6C757.1 254.8 756.733 254.9 756.4 254.9ZM435.9 246.8C435.433 246.8 435 246.733 434.6 246.6C429.7 244.1 424.7 241.5 419.9 238.9C418.5 238.1 418 236.5 418.8 235.1C419.5 233.8 421.2 233.3 422.5 234C427.3 236.6 432.2 239.2 437.1 241.6C438.4 242.3 439 243.9 438.3 245.3C437.9 246.3 436.9 246.8 435.9 246.8ZM790.6 237.1C789.6 237.1 788.7 236.6 788.2 235.7C787.4 234.4 787.9 232.7 789.2 231.9C793.7 229.3 798.3 226.5 803.2 223.4C804.5 222.6 806.2 223 807 224.3C807.8 225.6 807.5 227.3 806.2 228.1C801.2 231.2 796.5 234 792 236.7C791.533 236.967 791.067 237.1 790.6 237.1ZM402.2 228C401.667 228 401.167 227.867 400.7 227.6C396 224.6 391.4 221.5 386.9 218.3C385.6 217.4 385.3 215.7 386.2 214.5C387.1 213.2 388.8 212.9 390 213.8C394.5 216.9 399.1 220 403.7 222.9C405 223.7 405.3 225.4 404.5 226.7C404 227.5 403.1 228 402.2 228ZM823.2 216.5C822.3 216.5 821.5 216.1 820.9 215.3C820.1 214 820.4 212.3 821.7 211.4C826.4 208.4 831.1 205.2 835.4 202.3C836.7 201.4 838.4 201.7 839.3 203C840.1 204.3 839.8 206 838.5 206.8C834.1 209.8 829.4 213 824.7 216C824.3 216.4 823.8 216.5 823.2 216.5ZM1186.3 206.4C1185.5 206.4 1184.8 206.1 1184.3 205.5C1180.6 201.6 1176.7 197.7 1172.6 194.1C1171.5 193.1 1171.4 191.3 1172.5 190.2C1173.5 189.1 1175.2 189 1176.4 190C1180.5 193.8 1184.5 197.7 1188.3 201.8C1189.3 202.9 1189.3 204.6 1188.2 205.7C1187.6 206.2 1187 206.4 1186.3 206.4ZM370.8 205.5C370.2 205.5 369.6 205.3 369.1 204.9C364.8 201.4 360.5 197.8 356.4 194.1C355.3 193.1 355.2 191.4 356.2 190.2C357.2 189.1 358.9 189 360.1 190C364.1 193.6 368.3 197.2 372.6 200.6C373.8 201.6 373.9 203.3 373 204.5C372.4 205.2 371.6 205.5 370.8 205.5ZM855.3 195C854.4 195 853.5 194.6 853 193.8C852.2 192.5 852.5 190.8 853.8 190C858.9 186.5 863.5 183.6 867.7 180.9C868.9 180.1 870.6 180.4 871.5 181.7C872.3 183 871.9 184.7 870.6 185.5C866.5 188.2 861.9 191.2 856.8 194.6C856.4 194.9 855.8 195 855.3 195ZM3 186.5C1.6 186.5 0.299988 185.4 0.299988 183.9C0.0999878 181.2 0 178.5 0 175.8C0 172.9 0.0999878 169.9 0.299988 167C0.399988 165.5 1.70001 164.3 3.20001 164.4C4.70001 164.5 5.89999 165.8 5.79999 167.4C5.59999 170.2 5.5 173 5.5 175.8C5.5 178.4 5.59999 181 5.79999 183.5C5.79999 185.1 4.70001 186.4 3.20001 186.5C3.13335 186.5 3.06667 186.5 3 186.5ZM1157.4 180.8C1156.9 180.8 1156.3 180.7 1155.8 180.3C1151.5 177.1 1146.9 174 1142.3 171.1C1141 170.3 1140.6 168.6 1141.4 167.3C1142.2 166 1143.9 165.6 1145.2 166.4C1150 169.4 1154.6 172.6 1159.1 175.9C1160.3 176.8 1160.6 178.5 1159.7 179.7C1159.1 180.4 1158.3 180.8 1157.4 180.8ZM342.3 179.6C341.6 179.6 340.9 179.3 340.3 178.8C336.6 175 332.9 171.1 328.9 166.7C327.8 165.6 327.9 163.8 329 162.8C330.1 161.8 331.9 161.8 332.9 163C336.9 167.3 340.6 171.2 344.2 174.9C345.3 176 345.3 177.7 344.2 178.8C343.7 179.3 343 179.6 342.3 179.6ZM887.9 174.3C887 174.3 886 173.9 885.5 173C884.7 171.7 885.2 170 886.5 169.2C891.5 166.3 896.3 163.5 901 161C902.3 160.3 904 160.8 904.7 162.1C905.4 163.5 904.9 165.1 903.6 165.9C899 168.3 894.2 171.1 889.3 174C888.833 174.2 888.367 174.3 887.9 174.3ZM1124.5 160.7C1124.1 160.7 1123.7 160.6 1123.3 160.4C1118.5 158 1113.5 155.7 1108.4 153.6C1107 153 1106.4 151.4 1106.9 150C1107.5 148.6 1109.1 148 1110.6 148.5C1115.7 150.7 1120.8 153 1125.8 155.5C1127.1 156.2 1127.7 157.8 1127 159.2C1126.5 160.2 1125.5 160.7 1124.5 160.7ZM922 156.3C921 156.3 920 155.7 919.5 154.7C918.9 153.3 919.5 151.7 920.9 151.1C926 148.7 931.2 146.5 936.3 144.6C937.7 144.1 939.3 144.8 939.8 146.2C940.4 147.6 939.7 149.2 938.2 149.8C933.3 151.7 928.2 153.8 923.2 156.1C922.8 156.233 922.4 156.3 922 156.3ZM316.2 151.1C315.4 151.1 314.6 150.8 314.1 150.2C310.9 146.5 307.6 142.7 304.4 139.1L303.2 137.7C302.2 136.6 302.4 134.8 303.5 133.8C304.7 132.8 306.4 132.9 307.4 134.1L308.6 135.4C311.7 139.1 315 142.9 318.3 146.6C319.3 147.7 319.1 149.5 318 150.5C317.5 150.9 316.8 151.1 316.2 151.1ZM6.29999 148.2C6.09999 148.2 5.90001 148.167 5.70001 148.1C4.20001 147.7 3.30001 146.3 3.60001 144.8C4.90001 139.3 6.49999 133.9 8.39999 128.6C8.89999 127.2 10.5 126.4 11.9 127C13.4 127.5 14.1 129.1 13.6 130.5C11.8 135.6 10.2 140.8 9 146C8.7 147.3 7.59999 148.2 6.29999 148.2ZM1088.8 146.3C1088.53 146.3 1088.23 146.267 1087.9 146.2C1082.8 144.6 1077.5 143.1 1072.2 141.9C1070.7 141.5 1069.8 140 1070.1 138.5C1070.5 137.1 1072 136.1 1073.5 136.5C1078.9 137.8 1084.3 139.3 1089.6 140.9C1091 141.4 1091.9 142.9 1091.4 144.4C1091 145.6 1089.9 146.3 1088.8 146.3ZM958.2 143.1C957 143.1 955.9 142.3 955.5 141C955.1 139.6 956 138.1 957.5 137.7C962.8 136.2 968.3 134.9 973.8 133.9C975.3 133.6 976.7 134.6 977 136.1C977.3 137.6 976.3 139 974.8 139.3C969.5 140.3 964.1 141.6 958.9 143C958.7 143.067 958.467 143.1 958.2 143.1ZM1051.2 137.8C1051.07 137.8 1050.93 137.8 1050.8 137.8C1045.4 137 1039.9 136.4 1034.5 136C1033 135.9 1031.9 134.6 1032 133C1032.1 131.5 1033.4 130.4 1034.9 130.5C1040.4 130.9 1046 131.5 1051.5 132.3C1053.1 132.5 1054.1 133.9 1053.9 135.4C1053.7 136.8 1052.5 137.8 1051.2 137.8ZM996.2 136.3C994.7 136.3 993.5 135.2 993.4 133.8C993.3 132.3 994.4 130.9 995.9 130.8C1001.4 130.3 1007 130 1012.6 129.9C1012.6 129.9 1012.63 129.9 1012.7 129.9C1014.2 129.9 1015.4 131.1 1015.4 132.6C1015.5 134.1 1014.2 135.4 1012.7 135.4C1007.3 135.5 1001.8 135.8 996.4 136.3C996.333 136.3 996.267 136.3 996.2 136.3ZM290.8 122C290 122 289.3 121.7 288.7 121.1C284.7 116.6 281.1 112.6 277.7 108.9C276.6 107.8 276.7 106.1 277.8 105C278.9 104 280.7 104.1 281.7 105.2C285.2 108.9 288.8 112.9 292.9 117.5C293.9 118.6 293.8 120.3 292.6 121.4C292.1 121.8 291.4 122 290.8 122ZM20.1 112.2C19.6333 112.2 19.2 112.1 18.8 111.9C17.4 111.2 16.9 109.5 17.7 108.1C20.4 103.2 23.4 98.3999 26.6 93.8999C27.5 92.5999 29.2 92.2999 30.5 93.2C31.7 94.1 32 95.8001 31.1 97.1001C28 101.4 25.1 106.1 22.5 110.8C22 111.7 21.1 112.2 20.1 112.2ZM264.3 94C263.6 94 262.9 93.8 262.3 93.3C258.3 89.3 254.2 85.6 250.3 82.2C249.1 81.2 249 79.4 250 78.3C251 77.1 252.8 77 253.9 78C257.9 81.5 262 85.3 266.2 89.3C267.3 90.4 267.3 92.1 266.2 93.2C265.7 93.7999 265 94 264.3 94ZM43 81.3C42.3 81.3 41.6 81 41.1 80.5C40 79.5 40 77.7001 41 76.6001C45 72.6001 49.2 68.8 53.5 65.3C54.7 64.4 56.5 64.5 57.4 65.7C58.4 66.9 58.2 68.7001 57 69.6001C52.8 73.0001 48.7 76.6 45 80.5C44.4 81 43.7 81.3 43 81.3ZM234.8 69.2C234.3 69.2 233.7 69 233.2 68.7C228.7 65.4 224.1 62.5 219.6 59.8C218.2 59 217.8 57.3 218.6 56C219.3 54.7 221 54.3 222.3 55C227 57.8 231.8 60.9 236.4 64.2C237.7 65.1 237.9 66.8 237.1 68C236.5 68.8 235.7 69.2 234.8 69.2ZM73.5 57.8999C72.6 57.8999 71.6 57.4 71.1 56.5C70.4 55.2 70.9 53.5 72.2 52.8C77 50 82.1 47.5999 87.4 45.3999C88.8 44.7999 90.4 45.4999 91 46.8999C91.5 48.2999 90.9 49.9 89.5 50.5C84.5 52.6 79.6 55.0001 74.9 57.6001C74.4333 57.8001 73.9667 57.8999 73.5 57.8999ZM201.2 50.3C200.867 50.3 200.533 50.2334 200.2 50.1001C197.5 49.0001 194.8 48 192.1 47C189.8 46.2 187.3 45.4 184.9 44.7C183.4 44.3 182.6 42.8 183 41.3C183.4 39.8 185 38.9999 186.4 39.3999C188.9 40.0999 191.5 40.9 193.9 41.8C196.7 42.8 199.6 43.9 202.3 45C203.7 45.6 204.4 47.2001 203.8 48.6001C203.4 49.7001 202.3 50.3 201.2 50.3ZM109.3 43.8C108.1 43.8 107 43 106.7 41.7C106.3 40.2 107.2 38.6999 108.7 38.3999C114.1 36.9999 119.7 35.9 125.2 35.2C126.7 35 128.1 36.0001 128.3 37.6001C128.5 39.1001 127.5 40.4 125.9 40.7C120.6 41.4 115.2 42.4 110 43.7C109.8 43.7666 109.567 43.8 109.3 43.8ZM164.1 40.3999C163.967 40.3999 163.833 40.3999 163.7 40.3999C158.4 39.6999 153 39.4 147.5 39.3C146 39.3 144.8 38 144.8 36.5C144.8 35 146.1 33.8 147.6 33.8C153.2 33.9 158.9 34.1999 164.4 34.8999C165.9 35.0999 167 36.5 166.8 38C166.6 39.4 165.4 40.3999 164.1 40.3999Z" fill="#739CD2"/>
<path d="M1334 154.5L1293.8 225.8L1287.3 237.2L1278.5 225.8L1255.6 196L1334 154.5Z" fill="#C7DDF3"/>
<path d="M1334 154.5L1241.9 183.9L1207.4 163.4L1334 154.5Z" fill="#2C447D"/>
<path d="M1334 154.5L1255.6 196L1237.3 218.6L1241.9 183.9L1334 154.5Z" fill="#262F5F"/>
<path d="M831.9 124.5L824.6 170L823.2 178.7C823.2 185.5 808.7 274.4 801.3 274.4L683.1 192.8L552 283.8C544.5 283.8 536.6 188 536.6 181.3L536.1 170L534 124.7L555.1 106.5L674.7 3.1001C679.6 -0.399902 686.6 -0.399902 691.5 3.1001L811 106.5L831.9 124.5Z" fill="#211F44"/>
<path d="M775.2 124.3V263.2H590.1V84.1001H734.7L775.2 124.3Z" fill="white"/>
<path d="M775.2 124.3V129H730V84L734.7 84.1001L775.2 124.3Z" fill="#2C447D"/>
<path d="M775.2 124.3H734.7V84.1001L775.2 124.3Z" fill="white"/>
<path d="M686 219.3L753.8 150.2C771.6 132 797 121.6 823.6 121.6C829.9 121.6 835 125.8 835 130.8V225V315.6C835 320.7 826.5 328.4 820.2 328.4H781.7L686 230.8C682.8 227.5 682.8 222.5 686 219.3Z" fill="#262F5F"/>
<path d="M680.2 219.2L612.5 150C594.7 131.9 569.3 121.5 542.6 121.5C536.3 121.5 531.3 125.6 531.3 130.7V224.9V316.6C531.3 321.7 538.5 328.4 544.8 328.4L584.5 328.3L680.2 230.6C683.4 227.4 683.4 222.4 680.2 219.2Z" fill="#262F5F"/>
<path d="M835 277.8V317.6C835 323.6 828.9 328.4 821.4 328.4H544.8C537.3 328.4 531.3 323.6 531.3 317.6V277.8L674.7 186.7C677 185.3 679.8 184.5 682.6 184.4C685.8 184.3 688.9 185.1 691.5 186.7L835 277.8Z" fill="#2C447D"/>
<path d="M531.3 261.2L656.1 194.5L658.5 197L531.3 277.8V261.2Z" fill="#20274E"/>
<path d="M835 261.2L710.1 194.5L707.7 197L835 277.8V261.2Z" fill="#20274E"/>
<path d="M682.6 142.9C668.1 142.9 656.3 154.7 656.3 169.2H708.9C708.9 154.7 697.2 142.9 682.6 142.9Z" fill="#C7DDF3"/>
<path d="M696.2 127.3C696.2 134.8 690.1 140.9 682.6 140.9C675.1 140.9 669 134.8 669 127.3C669 119.8 675.1 113.7 682.6 113.7C690.1 113.7 696.2 119.8 696.2 127.3Z" fill="#C7DDF3"/>
</svg>
