<svg width="74" height="56" viewBox="0 0 74 56" fill="none" xmlns="http://www.w3.org/2000/svg">
<path d="M17.6999 17.7C17.0332 11.4334 16.6666 7.90003 16.5999 7.10003C16.2999 4.00003 9.99993 4.30002 7.59993 5.40002C-2.40007 10.1 0.499935 23.5 4.09993 31.6C10.9666 44.9334 18.6 52.7334 27 55C33.6 57.3 42.0999 55.7 42.5999 47.6C42.6666 46.4667 42.5667 45.5667 42.3 44.9C41.7667 43.8334 38.1 41.8667 31.3 39C29.9667 38.5334 28.3999 39.0667 26.5999 40.6C26.3333 40.8667 26.0667 41.0667 25.8 41.2C24.5 42.1 23.7999 42.2 22.5999 41.2C18.8999 38.4 13.3999 28.5 12.1999 25.5C11.9332 24.3 12.4667 23.3667 13.8 22.7C16.3333 21.5667 17.6332 19.9 17.6999 17.7Z" fill="white"/>
<path fill-rule="evenodd" clip-rule="evenodd" d="M29.6 0H71.4C72.4 0 73.3 0.899994 73.3 1.89999V29C73.3 30 72.4 30.8 71.4 30.8H29.6C28.6 30.8 27.8 30 27.8 29V1.89999C27.8 0.899994 28.6 0 29.6 0ZM32.5 2.39999L50.5 17.6C50.5667 17.6 50.6333 17.6 50.7 17.6L68.7 2.39999H32.5ZM70.9 4L57.8 15L70.9 26V4ZM51.2 20.5C50.8 20.9 50.2 20.8 49.8 20.5L45.3 16.7L31.4 28.4H69.7L55.7 16.7L51.2 20.5ZM30.2 26.1L43.3 15.1L30.2 4.10001V26.1Z" fill="white"/>
</svg>
