<?xml version="1.0" encoding="utf-8"?>
<!-- Generator: Adobe Illustrator 27.7.0, SVG Export Plug-In . SVG Version: 6.00 Build 0)  -->
<svg version="1.1" id="Layer_1" xmlns="http://www.w3.org/2000/svg" xmlns:xlink="http://www.w3.org/1999/xlink" x="0px" y="0px"
	 viewBox="0 0 56 56" style="enable-background:new 0 0 56 56;" xml:space="preserve">
<style type="text/css">
	.st0{fill:#125BA2;}
	.st1{fill:#FFFFFF;}
</style>
<circle class="st0" cx="28" cy="28" r="28"/>
<path class="st1" d="M40.4,35.7L32.7,28l7.7-7.7c1.3-1.3,1.3-3.4,0-4.7c-1.3-1.3-3.4-1.3-4.7,0L28,23.3l-7.7-7.7
	c-1.3-1.3-3.4-1.3-4.7,0c-1.3,1.3-1.3,3.4,0,4.7l7.7,7.7l-7.7,7.7c-1.3,1.3-1.3,3.4,0,4.7c0.6,0.6,1.5,1,2.3,1c0.8,0,1.7-0.3,2.3-1
	l7.7-7.7l7.7,7.7c0.6,0.6,1.5,1,2.3,1s1.7-0.3,2.3-1C41.7,39.1,41.7,37,40.4,35.7z"/>
</svg>
