<svg width="30" height="34" viewBox="0 0 30 34" fill="none" xmlns="http://www.w3.org/2000/svg">
<path d="M2.90002 30.3001V2.90009H26.4V0.100098H0.0999756V30.3001H2.90002Z" fill="white"/>
<path fill-rule="evenodd" clip-rule="evenodd" d="M29.1 5.40015C29.1 5.40015 29.1 15.4002 29.1 24.5002C29.1 33.5002 19.6 33.9001 19.6 33.9001H5.40002V5.40015H29.1ZM8.19995 31.1002H19.6C19.6666 31.1002 19.8 31.1002 20 31.1002C21.7 30.1002 21.5 26.6002 21.5 26.6002C24.7 26.6002 25.9 24.8002 26.3 23.6002V8.10016H8.19995V31.1002Z" fill="white"/>
<path d="M14.9 13.1C14.9 12.2 15.6 11.5 16.8 11.5C18 11.5 18.7 12.2 18.7 13.1C18.7 14 17.9 14.7 16.8 14.7C15.7 14.7 14.9 14 14.9 13.1ZM15.3 25.3V16.9C15.3 16.3 15.6 16 16.2 16H17.4C18 16 18.4 16.3 18.4 16.9V25.3C18.4 25.9 18 26.3 17.4 26.3H16.2C15.6 26.3 15.3 25.9 15.3 25.3Z" fill="white"/>
</svg>
