<svg width="468" height="353" viewBox="0 0 468 353" fill="none" xmlns="http://www.w3.org/2000/svg">
<path d="M379.6 155.5C382.4 148.4 384 140.7 384 132.6C384 98.1999 356 70.2 321.6 70.2C287.1 70.2 259.2 98.1999 259.2 132.6C259.2 140.1 260.6 147.1 262.9 153.7C280.1 161.8 300.8 166.6 323.2 166.6C343.9 166.6 363.2 162.5 379.6 155.5Z" fill="white"/>
<path d="M216 65.1C216 29.1 186.9 0 151 0C115 0 85.9 29.1 85.9 65.1C85.9 101 115 130.1 151 130.1C186.9 130.1 216 101 216 65.1Z" fill="white"/>
<path d="M252.2 250.9C252.2 250.9 343.9 261.2 438.4 213.8C438.4 213.8 462 310.7 467.5 352.8H409.3L394.7 290.3C394.7 290.3 392.2 278.4 382.3 276.2L380.7 352.5H244.2L252.2 250.9Z" fill="white"/>
<path fill-rule="evenodd" clip-rule="evenodd" d="M403.7 206.6C403.7 206.6 335.9 236.3 244.9 226.5L232.7 225.7L221.1 352.7H88.1V265.4C88.1 265.4 77.3 258.5 74.8 272.9C72.3 287.3 58.5 352.6 58.5 352.6H0.599976L30.7 204.9C30.7 204.9 47.9 146.6 124.6 148.6C124.6 148.6 176.2 149.5 238.2 174C294.4 196.2 331.9 189.8 379.2 178L393.9 174.3C393.9 174.3 411.8 171.1 415.9 184.9C420 198.8 403.7 206.6 403.7 206.6ZM212.5 192.7C209.8 190.6 206.8 188.5 203.6 187.1C198.5 184.9 193.1 185.7 187.9 187.4C186.1 188 184.6 189.5 183 190.6C180.4 192.3 177.7 194 175.3 195.9C173 197.6 171.2 199.8 168.9 201.4C165 204.3 162.2 208.1 159.7 212.1C158.8 213.7 157.3 214.5 155.7 214.1C154.3 213.8 153 212.7 152 211.6C150.7 210.2 149.9 208.2 148.6 206.9C145.5 203.7 142.3 200.6 139 197.7C135.8 195 132.5 192.5 129.1 190.1C121.8 185 114.2 183.9 105.8 187.9C99.1 191.1 95.1 196.3 95.2 205.8C95.7 208.1 96.6 212.7 97.8 217.2C101.3 229.1 108 239.4 116.2 248.5C121.2 254.1 126.4 259.4 131.7 264.7C133.5 266.5 136.1 267.5 137.9 269.4C142.5 274 148.4 276.6 154 279.8C155.3 280.6 156.4 280.6 157.8 279.9C167.7 274.6 176.8 268.1 184.7 260.1C190.9 253.8 196.6 247 202.2 240.1C204.9 236.7 206.8 232.6 209 228.8C209.5 228 209.8 227 210.3 226.2C214.3 220.3 215.4 213.6 216.1 206.8C216.5 201.8 217.2 196.4 212.5 192.7Z" fill="white"/>
</svg>
