<?xml version="1.0" encoding="utf-8"?>
<!-- Generator: Adobe Illustrator 27.3.0, SVG Export Plug-In . SVG Version: 6.00 Build 0)  -->
<svg version="1.1" id="Layer_1" xmlns="http://www.w3.org/2000/svg" xmlns:xlink="http://www.w3.org/1999/xlink" x="0px" y="0px"
	 viewBox="0 0 382.8 140.5" style="enable-background:new 0 0 382.8 140.5;" xml:space="preserve">
<style type="text/css">
	.st0{fill:#2B8736;}
	.st1{fill:#CF3589;}
	.st2{fill:#0C5AA0;}
</style>
<g>
	<path class="st0" d="M44,19c1.1-2.8,2.1-5.6,3.2-8.3c2.2-5.5,6.9-8.4,12.8-8c4.1,0.3,8.5,4,9.8,8.3c0.2,0.5,0.3,1.1,0.5,1.6
		c0.2-6.7,3.6-10.8,10-12.4c3-0.7,5.8,0.6,8.4,2.1c2.6,1.6,3.7,4.3,4.9,7c0.9-1.1,1.7-2.1,2.5-3.1c3.7-4.9,14.7-5,18.3,2.8
		c1.3,2.9,2.4,5.9,3.6,8.9c0.2,0.4,0.4,0.8,0.6,1.2c1.3-1.2,2.4-2.5,3.7-3.3c2.3-1.4,4.6-2.7,7.5-1.8c1.7,0.5,3.6,0.8,5.1,1.7
		c1.1,0.6,2.1,1.8,2.8,2.9c1.7,3.2,3.4,6.4,4.8,9.7c1.4,3.3,2.4,6.7,3.7,10c1.2,3.1,2.8,6.1,4,9.2c1.6,4.2,3.1,8.4,4.6,12.7
		c0.8,2.3,1.8,4.5,2.6,6.8c0.5,1.5,0.8,3.1,1.2,4.7c0.8,3.1,1.8,6.1,2.3,9.3c0.8,4.6,1.5,9.3,1.9,14c0.4,5.4-0.4,10.8-2.6,15.8
		c-1,2.2-2.6,4.1-3.9,6.2c-2.2,3.5-5,6.4-8,9.2c-4.9,4.5-10.6,7.9-16.8,10.2c-3.9,1.5-8.1,2.6-12.2,3.2c-4.6,0.6-9.2,0.3-13.8,0.2
		c-1.7,0-3.3-0.6-4.9-0.9c-1.3-0.2-2.6-0.4-4-0.7c-5-1-9.6-3-14.3-5c-0.9-0.4-1.6-0.4-2.5,0c-3.6,1.5-7.1,3.3-10.8,4.3
		c-9.8,2.7-19.8,3.8-29.9,1.4c-12.1-2.8-22.2-8.8-30.2-18.3c-2.8-3.3-5.1-7.2-6.9-11.2c-1.5-3.4-2.1-7.2-1.8-11.1
		c0.2-3.4,0.1-6.9,0.4-10.4c0.1-2,0.6-3.9,0.9-5.8c1.2-7,3.6-13.7,6-20.3c1.3-3.4,2.4-6.9,3.7-10.3c0.7-1.8,1.7-3.4,2.4-5.2
		c3.3-8.4,6.6-16.8,9.9-25.1c2.8-7,12-9,17.5-4.9C42,16.6,42.9,17.8,44,19 M85.8,129.9c1.1,0.3,1.9,0.6,2.8,0.9
		c5.3,2,10.7,3.3,16.3,4c4.4,0.6,8.7,0.8,13.1,0.2c0.8-0.1,1.5-0.4,2.3-0.5c6-0.7,11.4-3.1,16.6-5.9c4.4-2.3,8.4-5.3,11.5-9.2
		c1.8-2.2,3.6-4.5,5.4-6.8c0.7-0.8,1.3-1.7,1.9-2.6c0.5-0.7,1.1-1.5,1.3-2.3c0.5-1.8,0.8-3.7,1.2-5.6c0.3-1.6,0.7-3.2,0.7-4.8
		c-0.1-2.9-0.5-5.7-0.8-8.6c-0.3-2.6-0.4-5.2-1.1-7.6c-1.6-5.6-3.5-11.2-5.4-16.7c-1.9-5.4-3.9-10.7-5.9-16.1
		c-2.4-6.2-5-12.4-7.5-18.6c-0.9-2.2-1.6-4.5-2.6-6.7c-1.6-3.9-6.2-6.1-9.4-4.7c-4.3,1.9-5.9,6.1-4,10.5c2.7,6.5,5.4,13,8,19.5
		c1.3,3.2,2.6,6.4,3.8,9.7c0.2,0.7,0,1.7-0.4,2.3c-0.3,0.4-1.4,0.7-1.9,0.4c-0.7-0.3-1.3-1.1-1.6-1.8c-1.6-3.9-3.1-7.8-4.7-11.7
		c-1-2.3-2.1-4.6-3-6.9c-1.4-3.3-2.6-6.7-3.9-10.1c-2.6-6.3-5.5-12.6-7.9-19c-1.7-4.3-6.2-4.7-9.1-3.6c-3.7,1.4-5.3,5.7-3.8,9.7
		s3.1,8,4.7,12.1c2.8,7.2,5.6,14.4,8.4,21.6c0.6,1.5,0.1,2.9-1.1,3.5c-1.3,0.6-2.7,0-3.4-1.6c-1.1-2.6-2.1-5.2-3.2-7.8
		c-2.2-5.4-4.4-10.9-6.6-16.3c-1.7-4.3-3.5-8.6-5.3-12.9c-1-2.4-1.9-4.8-3-7.1c-1.7-3.5-5.8-5-8.8-3.4c-3.8,2-5.1,5.5-3.4,9.7
		c3.5,8.8,7.1,17.6,10.7,26.4c2.5,6.1,4.9,12.2,7.3,18.3c0.7,1.7,0.2,2.9-1.1,3.4s-2.5,0-3.2-1.6c-0.4-1-0.8-2.1-1.2-3.1
		c-1-2.3-2-4.6-2.9-6.9c-1.9-4.8-3.7-9.7-5.6-14.5c-1.6-4.1-3.2-8.2-5.1-12.2c-1.5-3.1-4.9-4.8-8.2-4c-3.9,1-5.9,5.4-4.3,9.5
		c1.9,4.7,3.8,9.5,5.7,14.2c3.8,9.6,7.7,19.2,11.5,28.7c0.7,1.8,1.5,3.6,2.1,5c4.6-3.7,9.1-7.4,13.8-10.8c2.1-1.5,4.7-2.6,7.2-3.3
		c2.5-0.7,5.2-0.4,7.8,0.2c5.5,1.4,9,5.3,11.6,10c0.1,0.2,0.2,0.5,0.2,0.8c0.1,1.7,0.1,3.3,0.3,5c0.5,3.5-0.8,6.7-1.8,10
		c-0.7,2.3-2.1,4.5-3.1,6.7c-3,6.6-7.6,12-12.4,17.4c-4.2,4.7-9.5,8.3-14.4,12.2C89.4,127.9,87.6,128.8,85.8,129.9 M76.1,129.8
		c0-0.2-0.1-0.3-0.1-0.5c-1.2-0.6-2.5-1.1-3.6-1.8c-5.7-3.7-10.7-8.1-15.3-13c-3.2-3.5-6.5-7-9.1-10.9c-4.1-6-7.3-12.5-8.4-19.9
		c-0.8-5-0.3-9.7,3.3-13.6c1.4-1.5,3.2-2.5,4.9-3.7c3.7-2.7,7.9-2.8,12.1-2.1c3.4,0.6,6.2,2.5,8.9,4.4c1.6,1.1,3.1,2.2,4.7,3.3
		c0.1-0.1,0.2-0.1,0.3-0.2C69.6,61.4,65.4,51,61.1,40.4C59.9,42.9,59,45,58,47.2c-1.2,2.7-2.4,5.4-3.7,8c-0.6,1.1-2.3,1.5-3.2,0.8
		c-0.9-0.6-1.1-2.2-0.5-3.4c1-1.9,1.9-3.9,2.8-5.8c1.4-2.8,2.7-5.7,4.1-8.6c0.8-1.7,1.5-3.2,0.7-5.3c-1.1-2.4-1.7-5-1-7.7
		c0.9-3.7,2.7-6.8,6.7-8c0.6-0.2,1.3-1,1.4-1.7c0.2-1,0.1-2.1-0.1-3.1c-0.7-3-3.2-5-6.2-5.1c-2.7-0.2-5.5,1.6-6.7,4.3
		c-1.3,3-2.4,6.1-3.6,9.1C43.9,32.5,39.1,44.3,34.2,56c-0.5,1.3-1,2.6-1.6,3.9s-2,1.7-3.2,1.2s-1.7-1.7-1.3-3
		c0.1-0.4,0.3-0.8,0.4-1.2c2.4-5.7,4.7-11.4,7.1-17C37.2,36,38.9,32,40.4,28c1.6-4.2-0.8-8.7-4.9-9.7c-3.5-0.8-7,1.4-8.5,5.3
		c-2.2,5.7-4.4,11.3-6.6,17c-3.1,8.1-6.2,16.1-9.2,24.2c-1.3,3.4-2.8,6.8-3.7,10.3c-1.1,4.3-1.7,8.7-2.4,13.1
		c-0.8,5-1,10.1-0.1,15.1c1,5.4,3.8,9.9,7.3,13.8c4.1,4.6,8.7,8.7,14.2,11.7c10.8,5.7,22.1,7.9,34.2,5.5c4.4-0.9,8.7-2.4,13-3.7
		C74.4,130.5,75.3,130.1,76.1,129.8 M44,81.1c0.3,1.4,0.8,4.2,1.6,7c2.1,7.4,6.2,13.7,11.3,19.3c3.1,3.4,6.3,6.7,9.5,9.9
		c1.1,1.1,2.7,1.7,3.8,2.9c2.8,2.9,6.4,4.5,9.8,6.4c0.8,0.5,1.5,0.5,2.3,0c6.1-3.2,11.7-7.2,16.5-12.2c3.8-3.9,7.3-8,10.8-12.3
		c1.7-2.1,2.8-4.6,4.2-6.9c0.3-0.5,0.5-1.1,0.8-1.6c2.4-3.6,3.1-7.7,3.5-11.9c0.3-3.1,0.7-6.4-2.2-8.7c-1.7-1.3-3.5-2.5-5.4-3.4
		c-3.2-1.4-6.5-0.9-9.6,0.2c-1.1,0.4-2,1.3-3,2c-1.6,1.1-3.2,2.1-4.7,3.2c-1.4,1.1-2.5,2.4-3.9,3.4c-2.4,1.8-4.1,4.1-5.6,6.5
		c-0.6,1-1.5,1.5-2.5,1.3c-0.8-0.2-1.7-0.9-2.3-1.5c-0.8-0.9-1.2-2.1-2.1-2.9c-1.9-2-3.9-3.9-5.9-5.6c-1.9-1.7-4-3.2-6-4.6
		c-4.5-3.2-9.2-3.8-14.3-1.4C46.4,72,44,75.3,44,81.1"/>
	<path class="st1" d="M44,81.1c-0.1-5.8,2.4-9.1,6.5-11c5.2-2.4,9.8-1.8,14.3,1.4c2.1,1.5,4.1,3,6,4.6c2.1,1.8,4,3.7,5.9,5.6
		c0.8,0.8,1.3,2.1,2.1,2.9c0.6,0.7,1.5,1.3,2.3,1.5c1,0.2,1.9-0.3,2.5-1.3c1.5-2.5,3.2-4.8,5.6-6.5c1.4-1,2.5-2.4,3.9-3.4
		c1.5-1.2,3.2-2.2,4.7-3.2c1-0.7,1.9-1.6,3-2c3.2-1.1,6.5-1.6,9.6-0.2c1.9,0.9,3.7,2.1,5.4,3.4c2.9,2.3,2.5,5.6,2.2,8.7
		c-0.4,4.2-1.1,8.3-3.5,11.9c-0.3,0.5-0.5,1.1-0.8,1.6c-1.4,2.3-2.5,4.9-4.2,6.9c-3.4,4.2-7,8.4-10.8,12.3
		c-4.8,4.9-10.4,8.9-16.5,12.2c-0.9,0.5-1.5,0.4-2.3,0c-3.4-2-7-3.5-9.8-6.4c-1.1-1.1-2.7-1.8-3.8-2.9c-3.2-3.2-6.4-6.5-9.5-9.9
		c-5.1-5.6-9.1-11.9-11.3-19.3C44.9,85.3,44.4,82.5,44,81.1"/>
	<g>
		<path class="st2" d="M211.4,31.9c0,5.8-4.8,9.5-12,9.5h-12.5c-1.5,0-2.4-0.8-2.4-2.3V10c0-1.5,0.9-2.3,2.4-2.3H198
			c6.8,0,11.8,3.5,11.8,9.2c0,2.8-1.5,5.7-5.4,7C209.1,24.6,211.4,28.5,211.4,31.9z M192.3,13.8V22h4c4.3,0,6.1-2.1,6.1-4.2
			c0-2.5-2.1-3.9-5-3.9h-5.1V13.8z M203.9,31.3c0-2.2-1.9-4.4-6.4-4.4h-5.3v8.3h6.9C202.2,35.3,203.9,33.6,203.9,31.3z"/>
		<path class="st2" d="M214.2,29.1c0-7.3,5-12.9,11.9-12.9c3.3,0,6.2,1.2,7.9,4V19c0-1.5,0.8-2.3,2.3-2.3h2.8c1.5,0,2.3,0.8,2.3,2.3
			v20.1c0,1.5-0.8,2.3-2.3,2.3h-2.8c-1.5,0-2.3-0.8-2.3-2.3v-1.2c-1.8,2.7-4.7,4-7.9,4C219.1,42,214.2,36.4,214.2,29.1z M234.1,29.1
			c0-3.9-2.5-6.9-6.3-6.9c-3.9,0-6.2,3.1-6.2,6.9s2.3,6.9,6.2,6.9C231.6,36,234.1,33,234.1,29.1z"/>
		<path class="st2" d="M247,39.1V19c0-1.5,0.8-2.3,2.3-2.3h2.6c1.5,0,2.3,0.8,2.3,2.3v3.1c0.8-4.5,4.3-5.9,6.4-5.9h0.8
			c1.2,0.1,1.4,1,1.4,2v3.4c0,1.3-0.7,1.9-1.7,1.8c-0.4,0-0.8-0.1-1.2-0.1c-2.9,0-5.5,1.9-5.5,8.1v7.8c0,1.5-0.8,2.3-2.3,2.3h-2.8
			C247.8,41.5,247,40.6,247,39.1z"/>
		<path class="st2" d="M265.9,39.1V19c0-1.5,0.8-2.3,2.3-2.3h2.8c1.5,0,2.3,0.8,2.3,2.3v1.6c1.2-2.8,3.8-4.5,7.5-4.5
			c6.6,0,9,5.2,9,11V39c0,1.5-0.9,2.3-2.4,2.3h-2.6c-1.5,0-2.3-0.8-2.3-2.3V27.6c0-3.5-1.3-5.5-3.9-5.5s-5.2,2-5.2,6.6V39
			c0,1.5-0.8,2.3-2.3,2.3h-2.8C266.8,41.5,265.9,40.6,265.9,39.1z"/>
		<path class="st2" d="M294,37c-0.7-1.4,0-2.5,1.5-2.9l1.5-0.3c1.3-0.3,1.9,0.3,2.9,1.3c0.9,1,2.2,1.4,3.7,1.4
			c1.9,0,3.2-0.9,3.2-2.2c0-1.1-0.7-1.6-2.3-2.2l-3-1.1c-2.5-0.8-7-2.7-7-7.2c0-4.6,3.8-7.8,9.2-7.8c3.2,0,6.1,1,7.9,3.8
			c1,1.4,0.2,2.6-1.3,3l-1.3,0.3c-1.2,0.3-1.9-0.1-2.8-0.9c-0.7-0.7-1.5-0.9-2.4-0.9c-1.5,0-2.5,1-2.5,2.1s1,1.6,2.3,2l3.1,1.2
			c5.1,1.7,6.9,4.4,7,7.5c0,5.2-4.6,7.7-10,7.7C299.2,42,295.6,40.3,294,37z"/>
		<path class="st2" d="M317.6,39.1V8.9c0-1.5,0.8-2.3,2.3-2.3h2.8c1.5,0,2.4,0.8,2.4,2.3v30.2c0,1.5-0.9,2.3-2.4,2.3h-2.8
			C318.4,41.5,317.6,40.6,317.6,39.1z"/>
		<path class="st2" d="M329.1,29.2c0-7,5.2-13,13.6-13c7,0,12.8,4.2,13.1,12.1c0,1.4-0.9,2-2.4,2h-17.2c-0.1,2.9,2.8,5.8,7.6,5.8
			c1.8,0,3.6-0.4,5.5-1.5c1.3-0.7,2.4-0.6,3.3,0.5l0.5,0.7c1,1.2,0.9,2.5-0.4,3.4c-2.8,2.1-6.2,2.8-9.3,2.8
			C334.5,42,329.1,36.3,329.1,29.2z M348.8,26.2c-0.7-3.3-3.5-4.4-6.1-4.4s-5.5,1.2-6.4,4.4H348.8z"/>
		<path class="st2" d="M362.1,49.5l4-9.8L357,19.4c-0.7-1.6,0-2.7,1.8-2.7h3.3c1.3,0,2.3,0.6,2.7,1.9l5.1,13.4l5.1-13.4
			c0.5-1.3,1.4-1.9,2.7-1.9h3.1c1.7,0,2.5,1.1,1.8,2.7l-13.5,31c-0.5,1.3-1.4,1.8-2.7,1.8H364C362.2,52.2,361.4,51.1,362.1,49.5z"/>
	</g>
	<g>
		<path class="st0" d="M182.6,67.9c0-9.4,7.1-17.4,18.5-17.4c4.3,0,7.5,1.3,10.3,3.2c1.2,0.8,1.3,2,0.5,3.2l-1.2,1.5
			c-0.9,1.2-1.9,1.2-3.2,0.4c-1.9-1.1-4.2-1.7-6.4-1.7c-6.7,0-10.8,4.8-10.8,10.7c0,5.9,4.1,10.7,10.8,10.7c2.1,0,4.4-0.6,6.4-1.7
			c1.3-0.8,2.4-0.8,3.2,0.4l1.2,1.5c0.9,1.3,0.8,2.3-0.2,3.1c-2.8,2-6.1,3.3-10.5,3.3C189.6,85.3,182.6,77.3,182.6,67.9z"/>
		<path class="st0" d="M214.5,72.4c0-7.3,5-12.9,11.9-12.9c3.3,0,6.2,1.2,7.9,4v-1.2c0-1.5,0.8-2.3,2.3-2.3h2.8
			c1.5,0,2.3,0.8,2.3,2.3v20.1c0,1.5-0.8,2.3-2.3,2.3h-2.8c-1.5,0-2.3-0.8-2.3-2.3v-1.1c-1.8,2.7-4.7,4-7.9,4
			C219.5,85.3,214.5,79.7,214.5,72.4z M234.5,72.4c0-3.9-2.5-6.9-6.3-6.9c-3.9,0-6.2,3.1-6.2,6.9s2.3,6.9,6.2,6.9
			C232,79.3,234.5,76.3,234.5,72.4z"/>
		<path class="st0" d="M247.4,82.4V62.3c0-1.5,0.8-2.3,2.3-2.3h2.6c1.5,0,2.3,0.8,2.3,2.3v3.1c0.8-4.5,4.3-5.9,6.4-5.9h0.8
			c1.2,0.1,1.4,1,1.4,2v3.4c0,1.3-0.7,1.9-1.7,1.8c-0.4,0-0.8-0.1-1.2-0.1c-2.9,0-5.5,1.9-5.5,8.1v7.8c0,1.5-0.8,2.3-2.3,2.3h-2.8
			C248.2,84.8,247.4,83.9,247.4,82.4z"/>
		<path class="st0" d="M264.3,72.5c0-7,5.2-13,13.6-13c7,0,12.8,4.2,13.1,12.1c0,1.4-0.9,2-2.4,2h-17.2c-0.1,2.9,2.8,5.8,7.6,5.8
			c1.8,0,3.6-0.4,5.5-1.5c1.3-0.7,2.4-0.6,3.3,0.5l0.5,0.7c1,1.2,0.9,2.5-0.4,3.4c-2.8,2.1-6.2,2.8-9.3,2.8
			C269.7,85.3,264.3,79.6,264.3,72.5z M284.1,69.5c-0.7-3.3-3.5-4.4-6.1-4.4s-5.5,1.2-6.4,4.4H284.1z"/>
		<path class="st0" d="M294.9,82.4V62.3c0-1.5,0.8-2.3,2.3-2.3h2.6c1.5,0,2.3,0.8,2.3,2.3v3.1c0.8-4.5,4.3-5.9,6.4-5.9h0.8
			c1.2,0.1,1.4,1,1.4,2v3.4c0,1.3-0.7,1.9-1.7,1.8c-0.4,0-0.8-0.1-1.2-0.1c-2.9,0-5.5,1.9-5.5,8.1v7.8c0,1.5-0.8,2.3-2.3,2.3h-2.8
			C295.7,84.8,294.9,83.9,294.9,82.4z"/>
		<path class="st0" d="M312.5,80.3c-0.7-1.4,0-2.5,1.5-2.9l1.5-0.3c1.3-0.3,1.9,0.3,2.9,1.3c0.9,1,2.2,1.4,3.7,1.4
			c1.9,0,3.2-0.9,3.2-2.2c0-1.1-0.7-1.6-2.3-2.2l-3-1.1c-2.5-0.8-7-2.7-7-7.2c0-4.6,3.8-7.8,9.2-7.8c3.2,0,6.1,1,7.9,3.8
			c1,1.4,0.2,2.6-1.3,3l-1.3,0.3c-1.2,0.3-1.9-0.1-2.8-0.9c-0.7-0.7-1.5-0.9-2.4-0.9c-1.5,0-2.5,1-2.5,2.1s1,1.6,2.3,2l3.1,1.2
			c5.1,1.7,6.9,4.4,7,7.5c0,5.2-4.6,7.7-10,7.7C317.7,85.3,314.1,83.6,312.5,80.3z"/>
	</g>
	<g>
		<path class="st0" d="M182.7,121.3c-0.6-1.4,0.1-2.5,1.6-2.8l2.1-0.5c1.3-0.3,2.1,0.2,2.8,1.5c1.1,1.8,3.2,3,6.1,3
			c3.3,0,5.4-1.4,5.4-3.7c0-1.7-1.3-3-3.8-3.9l-4.4-1.6c-4-1.3-8.9-4.3-8.9-9.5c0-6.2,5.3-10,11.9-10c5.2,0,8.9,2.3,10.8,6.2
			c0.7,1.4,0,2.5-1.4,2.9l-1.9,0.5c-1.3,0.4-2.2-0.1-3-1.3c-0.9-1.4-2.4-2.2-4.4-2.2c-2.4,0-4.5,1.2-4.5,3.4c0,1.2,0.5,2.5,3.5,3.6
			l4.4,1.6c6.6,2.2,9,5.7,9.1,9.9c0,6.6-5.6,10.1-12.8,10.1C189.1,128.6,184.5,125.8,182.7,121.3z"/>
		<path class="st0" d="M210.9,115.8c0-7,5.2-13,13.6-13c7,0,12.8,4.2,13.1,12.1c0,1.4-0.9,2-2.4,2H218c-0.1,2.9,2.8,5.8,7.6,5.8
			c1.8,0,3.6-0.4,5.5-1.5c1.3-0.7,2.4-0.6,3.3,0.5l0.5,0.7c1,1.2,0.9,2.5-0.4,3.4c-2.8,2.1-6.2,2.8-9.3,2.8
			C216.3,128.6,210.9,122.9,210.9,115.8z M230.6,112.8c-0.7-3.3-3.5-4.4-6.1-4.4s-5.5,1.2-6.4,4.4H230.6z"/>
		<path class="st0" d="M241.3,125.7v-20.1c0-1.5,0.8-2.3,2.3-2.3h2.6c1.5,0,2.3,0.8,2.3,2.3v3.1c0.8-4.5,4.3-5.9,6.4-5.9h0.8
			c1.2,0.1,1.4,1,1.4,2v3.4c0,1.3-0.7,1.9-1.7,1.8c-0.4,0-0.8-0.1-1.2-0.1c-2.9,0-5.5,1.9-5.5,8.1v7.8c0,1.5-0.8,2.3-2.3,2.3h-2.8
			C242.2,128.1,241.3,127.2,241.3,125.7z"/>
		<path class="st0" d="M267.4,126.3l-8.5-20.3c-0.7-1.6,0-2.7,1.8-2.7h3.1c1.3,0,2.2,0.6,2.6,1.9l5.3,14.8l5.3-14.8
			c0.4-1.3,1.3-1.9,2.6-1.9h3.1c1.7,0,2.5,1.1,1.8,2.7l-8.5,20.3c-0.5,1.2-1.4,1.8-2.7,1.8H270C268.8,128.1,267.9,127.5,267.4,126.3
			z"/>
		<path class="st0" d="M288.1,96.5c0-2.2,1.6-3.9,4.5-3.9c2.8,0,4.5,1.7,4.5,3.9c0,2.2-1.7,3.8-4.5,3.8S288.1,98.7,288.1,96.5z
			 M288.8,125.7v-20.1c0-1.5,0.8-2.3,2.3-2.3h2.8c1.5,0,2.4,0.8,2.4,2.3v20.1c0,1.5-0.9,2.3-2.4,2.3h-2.8
			C289.7,128.1,288.8,127.2,288.8,125.7z"/>
		<path class="st0" d="M300.3,115.8c0-7.2,5.5-13,14.2-13c2.4,0,5.2,0.5,7.8,2.1c1.3,0.8,1.3,2.1,0.4,3.3l-0.8,1
			c-0.9,1.2-1.9,1.2-3.3,0.6c-1.6-0.8-3.1-0.9-3.8-0.9c-4.2,0-7.2,2.8-7.2,6.9c0,4,3,6.9,7.2,6.9c0.7,0,2.2-0.1,3.8-0.9
			c1.4-0.6,2.4-0.6,3.3,0.6l0.8,1c0.9,1.2,0.7,2.6-0.9,3.5c-2.5,1.4-5.1,1.9-7.4,1.9C306,128.6,300.3,122.9,300.3,115.8z"/>
		<path class="st0" d="M325.6,115.8c0-7,5.2-13,13.6-13c7,0,12.8,4.2,13.1,12.1c0,1.4-0.9,2-2.4,2h-17.2c-0.1,2.9,2.8,5.8,7.6,5.8
			c1.8,0,3.6-0.4,5.5-1.5c1.3-0.7,2.4-0.6,3.3,0.5l0.5,0.7c1,1.2,0.9,2.5-0.4,3.4c-2.8,2.1-6.2,2.8-9.3,2.8
			C331,128.6,325.6,122.9,325.6,115.8z M345.3,112.8c-0.7-3.3-3.5-4.4-6.1-4.4s-5.5,1.2-6.4,4.4H345.3z"/>
	</g>
</g>
</svg>
