<?xml version="1.0" encoding="utf-8"?>
<!-- Generator: Adobe Illustrator 27.3.0, SVG Export Plug-In . SVG Version: 6.00 Build 0)  -->
<svg version="1.1" id="Layer_1" xmlns="http://www.w3.org/2000/svg" xmlns:xlink="http://www.w3.org/1999/xlink" x="0px" y="0px"
	 viewBox="0 0 173.9 174.9" style="enable-background:new 0 0 173.9 174.9;" xml:space="preserve">
<style type="text/css">
	.st0{fill:#CF358A;}
</style>
<g>
	<g>
		<g>
			<g>
				<path class="st0" d="M25.4,129.4c-0.5,0-1-0.2-1.4-0.6c-0.8-0.8-0.8-2,0-2.7l12.3-12.3c0.8-0.8,2-0.8,2.7,0c0.8,0.8,0.8,2,0,2.7
					l-12.3,12.3C26.3,129.2,25.8,129.4,25.4,129.4z"/>
			</g>
		</g>
		<g>
			<g>
				<path class="st0" d="M1.8,105.9c-0.5,0-1-0.2-1.4-0.6c-0.8-0.8-0.8-2,0-2.7l12-12c0.8-0.8,2-0.8,2.7,0c0.8,0.8,0.8,2,0,2.7
					l-12,12C2.8,105.7,2.3,105.9,1.8,105.9z"/>
			</g>
		</g>
		<g>
			<g>
				<path class="st0" d="M65.3,89.5c-0.5,0-1-0.2-1.4-0.6c-0.8-0.8-0.8-2,0-2.7l11.7-11.7c1.6-1.6,4-2.4,6.2-2
					c0.7,0.1,1.4,0.2,2.1,0.2c1.1,0,1.9,0.9,1.9,1.9c0,1.1-0.9,1.9-1.9,1.9l0,0c-0.9,0-1.8-0.1-2.7-0.2c-1.1-0.2-2.2,0.2-2.9,1
					L66.6,89C66.3,89.3,65.8,89.5,65.3,89.5z"/>
			</g>
		</g>
		<g>
			<g>
				<path class="st0" d="M100.6,26.2c-0.5,0-1-0.2-1.4-0.6c-0.8-0.8-0.8-2,0-2.7c0,0,0.1-0.1,0.2-0.2l0,0c1.1-1.2,1-3-0.1-4.2
					c-0.6-0.6-1.3-0.9-2.1-0.9l0,0c-0.8,0-1.6,0.3-2.1,0.9l-5.7,5.7c-0.8,0.8-2,0.8-2.7,0c-0.8-0.8-0.8-2,0-2.7l5.7-5.7
					c1.3-1.3,3-2,4.9-2l0,0c1.8,0,3.5,0.7,4.8,2c2.5,2.5,2.7,6.6,0.4,9.3l-0.1,0.1c-0.1,0.1-0.1,0.2-0.2,0.2
					C101.6,26,101.1,26.2,100.6,26.2z"/>
			</g>
		</g>
		<g>
			<g>
				<path class="st0" d="M101.9,38.8c-0.5,0-1-0.2-1.4-0.6c-0.8-0.8-0.8-2,0-2.7l5.7-5.7l0,0c1.1-1.2,1-3-0.1-4.2
					c-0.6-0.6-1.3-0.9-2.1-0.9c-0.7,0-1.5,0.3-2,0.8l-0.1,0.1l-5.7,5.7c-0.8,0.8-2,0.8-2.7,0c-0.8-0.8-0.8-2,0-2.7l5.7-5.7
					c0.1-0.1,0.2-0.2,0.3-0.3c1.2-1.1,2.9-1.8,4.6-1.8c1.8,0,3.6,0.7,4.9,2c2.6,2.6,2.7,6.8,0.2,9.5l0,0c-0.1,0.1-0.1,0.1-0.2,0.2
					l-5.7,5.7C102.9,38.7,102.4,38.8,101.9,38.8z"/>
			</g>
		</g>
		<g>
			<g>
				<path class="st0" d="M87.3,67.4c-0.5,0-1-0.2-1.4-0.6c-0.8-0.8-0.8-2,0-2.7l27.3-27.3c0-0.1,0.1-0.1,0.1-0.2c1-1.2,1-3-0.2-4.1
					c-0.6-0.6-1.3-0.9-2.1-0.9l0,0c-0.7,0-1.4,0.3-2,0.7l0,0l-0.1,0.1c-0.8,0.8-2,0.8-2.7,0c-0.8-0.8-0.8-2,0-2.7
					c0.1-0.1,0.1-0.1,0.2-0.2l0.1-0.1c0,0,0,0,0.1-0.1c1.2-1.1,2.8-1.7,4.5-1.7c1.9,0,3.6,0.7,4.9,2c2.5,2.5,2.7,6.6,0.3,9.4
					c-0.1,0.1-0.2,0.2-0.3,0.4L88.7,66.7C88.3,67.3,87.8,67.4,87.3,67.4z"/>
			</g>
		</g>
		<g>
			<g>
				<path class="st0" d="M47.9,59.8c-0.5,0-1-0.2-1.4-0.6c-0.8-0.8-0.8-2,0-2.7l7.9-7.9c0.6-0.6,1-1.4,1-2.3c0.1-3.3,1-6.6,2.7-9.4
					c0.8-1.4,1.8-2.6,2.9-3.8l20.5-20.5l0.1-0.1l3.7-3.7c1.3-1.3,3-2,4.8-2c0,0,0,0,0.1,0c1.8,0,3.5,0.7,4.8,2c2.7,2.7,2.7,7,0,9.7
					l-5.6,5.6c-0.8,0.8-2,0.8-2.7,0c-0.8-0.8-0.8-2,0-2.7l5.6-5.6c1.2-1.2,1.2-3.1,0-4.3c-0.6-0.6-1.3-0.9-2.1-0.9l0,0
					c-0.8,0-1.6,0.3-2.1,0.9l-3.6,3.6l-0.1,0.1L63.9,35.7c-0.9,0.9-1.7,1.9-2.3,3c-1.4,2.3-2.1,4.9-2.2,7.5c0,1.9-0.8,3.7-2.1,5
					l-0.2,0.2l-7.7,7.7C48.8,59.6,48.3,59.8,47.9,59.8z"/>
			</g>
		</g>
	</g>
	<g>
		<g>
			<g>
				<path class="st0" d="M127.2,151.4c-0.5,0-1-0.2-1.4-0.6l-12.3-12.3c-0.8-0.8-0.8-2,0-2.7c0.8-0.8,2-0.8,2.7,0l12.3,12.3
					c0.8,0.8,0.8,2,0,2.7C128.2,151.2,127.7,151.4,127.2,151.4z"/>
			</g>
		</g>
		<g>
			<g>
				<path class="st0" d="M103.7,175c-0.5,0-1-0.2-1.4-0.6l-12-12c-0.8-0.8-0.8-2,0-2.7c0.8-0.8,2-0.8,2.7,0l12,12
					c0.8,0.8,0.8,2,0,2.7C104.7,174.8,104.2,175,103.7,175z"/>
			</g>
		</g>
		<g>
			<g>
				<path class="st0" d="M87.3,111.5c-0.5,0-1-0.2-1.4-0.6L74.2,99.2c-1.6-1.6-2.4-4-2-6.2c0.1-0.7,0.2-1.4,0.2-2.1
					c0-1.1,0.9-1.9,1.9-1.9l0,0c1.1,0,1.9,0.9,1.9,1.9c0,0.9-0.1,1.8-0.2,2.7c-0.2,1.1,0.2,2.2,1,3l11.7,11.7c0.8,0.8,0.8,2,0,2.7
					C88.3,111.3,87.8,111.5,87.3,111.5z"/>
			</g>
		</g>
		<g>
			<g>
				<path class="st0" d="M22.7,88.8c-0.5,0-1-0.2-1.4-0.6l-5.7-5.7c-1.3-1.3-2-3-2-4.9c0-1.8,0.7-3.6,2-4.9c2.5-2.5,6.6-2.7,9.3-0.4
					l0.1,0.1c0.1,0.1,0.2,0.1,0.2,0.2c0.8,0.8,0.8,2,0,2.7c-0.8,0.8-2,0.8-2.7,0c-0.1,0-0.1-0.1-0.2-0.2l0,0c0,0,0,0,0.1,0
					c-1.2-1.1-3-1-4.2,0.1c-0.6,0.6-0.9,1.3-0.9,2.1c0,0.8,0.3,1.6,0.9,2.1l5.7,5.7c0.8,0.8,0.8,2,0,2.7
					C23.7,88.6,23.2,88.8,22.7,88.8z"/>
			</g>
		</g>
		<g>
			<g>
				<path class="st0" d="M29.7,81.8c-0.5,0-1-0.2-1.4-0.6l-5.7-5.7c-0.1-0.1-0.2-0.2-0.2-0.3c-1.1-1.3-1.8-2.9-1.8-4.6
					c0-1.8,0.7-3.6,2-4.9c2.6-2.6,6.7-2.7,9.5-0.2l0,0c0.1,0.1,0.1,0.1,0.2,0.2l5.7,5.7c0.8,0.8,0.8,2,0,2.7c-0.8,0.8-2,0.8-2.7,0
					l-5.7-5.7l0,0c-1.2-1.1-3-1-4.1,0.1c-0.6,0.6-0.9,1.3-0.9,2.1c0,0.7,0.3,1.5,0.8,2l2.3,2.3l3.5,3.5c0.8,0.8,0.8,2,0,2.7
					C30.7,81.7,30.2,81.8,29.7,81.8z"/>
			</g>
		</g>
		<g>
			<g>
				<path class="st0" d="M65.3,89.5c-0.5,0-1-0.2-1.4-0.6L36.6,61.6c0,0-0.1-0.1-0.2-0.1c-1.2-1-3-1-4.1,0.1
					c-0.6,0.6-0.9,1.3-0.9,2.1c0,0.7,0.3,1.4,0.7,2l0,0c0,0.1,0.1,0.1,0.1,0.2c0.8,0.8,0.8,2,0,2.7c-0.8,0.8-2,0.8-2.7,0
					c-0.1-0.1-0.1-0.1-0.2-0.2l-0.1-0.1c0,0,0,0-0.1-0.1c-1.1-1.2-1.7-2.8-1.7-4.5c0-1.8,0.7-3.6,2-4.9c2.5-2.5,6.6-2.7,9.4-0.3
					c0.1,0.1,0.2,0.2,0.4,0.3l27.3,27.3c0.8,0.8,0.8,2,0,2.7C66.3,89.3,65.8,89.5,65.3,89.5z"/>
			</g>
		</g>
		<g>
			<g>
				<path class="st0" d="M57.6,128.9c-0.5,0-1-0.2-1.4-0.6l-7.9-7.9c-0.6-0.6-1.5-1-2.4-1c-3.3-0.1-6.6-1-9.4-2.7
					c-1.3-0.8-2.6-1.8-3.8-2.9L8.4,89.5c-1.3-1.3-2-3-2-4.9c0-1.8,0.7-3.6,2-4.9c2.6-2.6,7-2.7,9.6-0.1l0.1,0.1l5.6,5.6
					c0.8,0.8,0.8,2,0,2.7c-0.8,0.8-2,0.8-2.7,0l-5.5-5.5l-0.1-0.1l0,0c-1.2-1.1-3.1-1.1-4.2,0c-0.6,0.6-0.9,1.3-0.9,2.1
					c0,0.8,0.3,1.6,0.9,2.1l24.3,24.3c0.9,0.9,1.9,1.7,3,2.3c2.3,1.4,4.9,2.1,7.5,2.2c1.9,0,3.7,0.8,5,2.1l7.9,7.9
					c0.8,0.8,0.8,2,0,2.7C58.6,128.7,58.1,128.9,57.6,128.9z"/>
			</g>
		</g>
	</g>
	<g>
		<g>
			<g>
				<path class="st0" d="M159.7,83.9c-0.5,0-1-0.2-1.4-0.6c-0.8-0.8-0.8-2,0-2.7l12.3-12.3c0.8-0.8,2-0.8,2.7,0c0.8,0.8,0.8,2,0,2.7
					L161,83.3C160.7,83.8,160.2,83.9,159.7,83.9z"/>
			</g>
		</g>
		<g>
			<g>
				<path class="st0" d="M136.9,61.9c-0.5,0-1-0.2-1.4-0.6c-0.8-0.8-0.8-2,0-2.7l12.3-12.3c0.8-0.8,2-0.8,2.7,0c0.8,0.8,0.8,2,0,2.7
					l-12.2,12.3C137.9,61.7,137.4,61.9,136.9,61.9z"/>
			</g>
		</g>
		<g>
			<g>
				<path class="st0" d="M93.8,102.8c-0.4,0-0.7,0-1.1-0.1c-0.7-0.1-1.4-0.2-2.1-0.2c-1.1,0-1.9-0.9-1.9-1.9c0-1.1,0.9-1.9,1.9-1.9
					l0,0c0.9,0,1.8,0.1,2.7,0.2c1.1,0.2,2.2-0.2,3-1L108,86.2c0.8-0.8,2-0.8,2.7,0c0.8,0.8,0.8,2,0,2.7L99,100.6
					C97.6,102,95.7,102.8,93.8,102.8z"/>
			</g>
		</g>
		<g>
			<g>
				<g>
					<path class="st0" d="M77.5,161.2L77.5,161.2c-1.9,0-3.6-0.7-4.9-2c-2.5-2.5-2.7-6.6-0.4-9.3l0.1-0.1c0.1-0.1,0.2-0.2,0.2-0.3
						c0.8-0.8,2-0.7,2.7,0c0.8,0.8,0.7,2,0,2.7c0,0.1-0.1,0.1-0.2,0.2c-1,1.2-0.9,3,0.2,4.1c0.6,0.6,1.3,0.9,2.1,0.9l0,0
						c0.8,0,1.6-0.3,2.1-0.9l5.7-5.7c0.8-0.8,2-0.8,2.7,0c0.8,0.8,0.8,2,0,2.7l-5.7,5.7C81.1,160.5,79.4,161.2,77.5,161.2z
						 M75.3,152.3C75.2,152.3,75.2,152.3,75.3,152.3C75.2,152.3,75.2,152.3,75.3,152.3z"/>
				</g>
			</g>
			<g>
				<g>
					<path class="st0" d="M70.5,154.2c-1.8,0-3.6-0.7-4.9-2c-2.6-2.6-2.7-6.8-0.2-9.5l0,0l0,0c0.1-0.1,0.1-0.1,0.2-0.2l5.7-5.7
						c0.8-0.8,2-0.8,2.7,0c0.8,0.8,0.8,2,0,2.7l-5.7,5.7l0,0l0,0c-1.1,1.2-1,3,0.1,4.2c0.6,0.6,1.3,0.9,2.1,0.9c0.7,0,1.5-0.3,2-0.8
						l0.1-0.1l5.7-5.7c0.8-0.8,2-0.8,2.7,0c0.8,0.8,0.8,2,0,2.7l-5.7,5.7c-0.1,0.1-0.2,0.2-0.3,0.2
						C73.9,153.6,72.2,154.2,70.5,154.2z"/>
				</g>
			</g>
			<g>
				<g>
					<path class="st0" d="M63.6,147.2C63.5,147.2,63.5,147.2,63.6,147.2c-1.9,0-3.6-0.7-4.9-2c-2.5-2.5-2.7-6.6-0.3-9.4
						c0.1-0.1,0.2-0.2,0.3-0.4l3.7-3.7l0.1-0.1L86,108.1c0.8-0.8,2-0.8,2.7,0c0.8,0.8,0.8,2,0,2.7l-23.6,23.7l-0.1,0.1l-3.6,3.6
						l-0.1,0.1c-1.1,1.2-1,3,0.1,4.2c0.6,0.6,1.3,0.9,2.1,0.9l0,0c0.7,0,1.4-0.3,1.9-0.7l0,0l0.1-0.1c0.6-0.6,1.5-0.8,2.2-0.4
						c1,0.5,1.3,1.6,0.9,2.6c-0.1,0.2-0.3,0.4-0.4,0.6c-0.1,0.1-0.1,0.1-0.2,0.2c0,0-0.1,0.1-0.2,0.2
						C66.8,146.6,65.2,147.2,63.6,147.2z M65.7,142.5L65.7,142.5L65.7,142.5z"/>
				</g>
			</g>
			<g>
				<g>
					<path class="st0" d="M84.5,168.2c-1.8,0-3.5-0.7-4.8-2c-2.7-2.7-2.7-7,0-9.7l5.6-5.6c0.8-0.8,2-0.8,2.7,0c0.8,0.8,0.8,2,0,2.7
						l-5.6,5.6c-1.2,1.2-1.2,3.1,0,4.3c0.6,0.6,1.3,0.9,2.1,0.9l0,0c0.8,0,1.6-0.3,2.1-0.9l3.7-3.7l0.1-0.1l1.3-1.3l19.2-19.2
						c0.9-0.9,1.7-1.9,2.3-3c1.4-2.3,2.1-4.9,2.2-7.5c0-1.9,0.8-3.7,2.1-5l0.1-0.2l7.7-7.7c0.8-0.8,2-0.8,2.7,0c0.8,0.8,0.8,2,0,2.7
						l-7.8,7.8c-0.6,0.6-1,1.5-1,2.4c-0.1,3.3-1,6.6-2.7,9.4c-0.8,1.3-1.8,2.6-2.9,3.8l-20.5,20.5l-0.1,0.1l-3.6,3.6
						C88.1,167.5,86.4,168.2,84.5,168.2L84.5,168.2z"/>
				</g>
			</g>
		</g>
	</g>
	<g>
		<g>
			<g>
				<path class="st0" d="M59.7,39.8c-0.5,0-1-0.2-1.4-0.6L46,26.9c-0.8-0.8-0.8-2,0-2.7c0.8-0.8,2-0.8,2.7,0L61,36.5
					c0.8,0.8,0.8,2,0,2.7C60.7,39.7,60.2,39.8,59.7,39.8z"/>
			</g>
		</g>
		<g>
			<g>
				<path class="st0" d="M82.9,15.9c-0.5,0-1-0.2-1.4-0.6l-12-12c-0.8-0.8-0.8-2,0-2.7c0.8-0.8,2-0.8,2.7,0l12,12
					c0.8,0.8,0.8,2,0,2.7C83.9,15.7,83.4,15.9,82.9,15.9z"/>
			</g>
		</g>
		<g>
			<g>
				<path class="st0" d="M100.4,86.2L100.4,86.2c-1.1,0-1.9-0.9-1.9-1.9c0-0.9,0.1-1.8,0.2-2.7c0.2-1.1-0.2-2.2-1-2.9L86,67
					c-0.8-0.8-0.8-2,0-2.7c0.8-0.8,2-0.8,2.7,0L100.4,76c1.6,1.6,2.4,4,2.1,6.2c-0.1,0.7-0.2,1.4-0.2,2.1
					C102.3,85.3,101.4,86.2,100.4,86.2z"/>
			</g>
		</g>
		<g>
			<g>
				<g>
					<path class="st0" d="M154.1,104.2c-1.6,0-3.2-0.5-4.5-1.6l-0.1-0.1c-0.1-0.1-0.2-0.2-0.3-0.2c-0.8-0.8-0.7-2,0-2.7
						c0.8-0.8,2-0.7,2.7,0c0.1,0,0.1,0.1,0.2,0.2l0,0c0,0,0,0-0.1,0c1.2,1.1,3,1,4.2-0.1c0.6-0.6,0.9-1.3,0.9-2.1
						c0-0.8-0.3-1.6-0.9-2.1l-5.7-5.7c-0.8-0.8-0.8-2,0-2.7c0.8-0.8,2-0.8,2.7,0l5.7,5.7c1.3,1.3,2,3,2,4.9c0,1.8-0.7,3.6-2,4.9
						C157.6,103.5,155.8,104.2,154.1,104.2z"/>
				</g>
			</g>
			<g>
				<g>
					<path class="st0" d="M147.1,111.2c-1.6,0-3.3-0.6-4.6-1.8l0,0c-0.1-0.1-0.2-0.1-0.2-0.2l-5.7-5.7c-0.8-0.8-0.8-2,0-2.7
						c0.8-0.8,2-0.8,2.7,0l5.7,5.7l0,0c1.2,1.1,3,1,4.2-0.1c0.6-0.6,0.9-1.3,0.9-2.1c0-0.7-0.3-1.5-0.8-2l-0.1-0.1l-5.7-5.7
						c-0.8-0.8-0.8-2,0-2.7c0.8-0.8,2-0.8,2.7,0l5.7,5.7c0.1,0.1,0.2,0.2,0.3,0.3c1.1,1.2,1.8,2.9,1.8,4.6c0,1.8-0.7,3.6-2,4.9
						C150.6,110.5,148.8,111.2,147.1,111.2z"/>
				</g>
			</g>
			<g>
				<g>
					<path class="st0" d="M140.1,118.2c-1.6,0-3.2-0.5-4.5-1.7c-0.1-0.1-0.2-0.2-0.4-0.3l-27.3-27.3c-0.8-0.8-0.8-2,0-2.7
						c0.8-0.8,2-0.8,2.7,0l27.3,27.3c0.1,0.1,0.1,0.1,0.2,0.1c1.2,1,3,1,4.1-0.1c0.6-0.6,0.9-1.3,0.9-2.1c0-0.7-0.3-1.4-0.7-2l0,0
						c-0.1-0.1-0.1-0.1-0.2-0.2c-0.8-0.8-0.8-2,0-2.7c0.8-0.8,2-0.8,2.7,0c0.1,0.1,0.1,0.1,0.2,0.2l0.1,0.1c0,0,0,0,0.1,0.1
						c1.1,1.2,1.7,2.8,1.7,4.5c0,1.8-0.7,3.6-2,4.9C143.6,117.5,141.8,118.2,140.1,118.2z"/>
				</g>
			</g>
			<g>
				<g>
					<path class="st0" d="M161.1,97.2c-1.8,0-3.5-0.7-4.9-2l-5.6-5.6c-0.8-0.8-0.8-2,0-2.7c0.8-0.8,2-0.8,2.7,0l5.6,5.6
						c1.2,1.2,3.1,1.2,4.3,0c0.6-0.6,0.9-1.3,0.9-2.1c0-0.8-0.3-1.6-0.9-2.1L138.9,64c-0.9-0.9-1.9-1.7-3-2.3
						c-2.3-1.4-4.9-2.1-7.5-2.2c-1.9,0-3.7-0.8-5-2.1l-7.9-7.9c-0.8-0.8-0.8-2,0-2.7c0.8-0.8,2-0.8,2.7,0l7.9,7.9
						c0.6,0.6,1.5,1,2.3,1c3.3,0.1,6.6,1,9.4,2.7c1.4,0.8,2.6,1.8,3.8,2.9l24.3,24.3c1.3,1.3,2,3,2,4.9c0,1.8-0.7,3.6-2,4.9
						C164.6,96.5,162.8,97.2,161.1,97.2z"/>
				</g>
			</g>
		</g>
	</g>
</g>
</svg>
